HIERARCHY
ROOT root
{
	OFFSET	0	13.1	24.9
	CHANNELS 6  Xposition Yposition Zposition Xrotation Yrotation Zrotation
	JOINT spine_1
	{
		OFFSET	0	9.99999	0
		CHANNELS 3  Xrotation Yrotation Zrotation
		JOINT spine_2
		{
			OFFSET	0	112	-10
			CHANNELS 3  Xrotation Yrotation Zrotation
			JOINT spine_3
			{
				OFFSET	0	206.5	19.3
				CHANNELS 3  Xrotation Yrotation Zrotation
				JOINT spine_4
				{
					OFFSET	0	110.4	14.6
					CHANNELS 3  Xrotation Yrotation Zrotation
					JOINT neck_1
					{
						OFFSET	0	71.8	-50.3
						CHANNELS 3  Xrotation Yrotation Zrotation
						JOINT neck_2
						{
							OFFSET	0	86.2	-25.8
							CHANNELS 3  Xrotation Yrotation Zrotation
							JOINT head_ee
							{
								OFFSET	0	179.8	-8.7
								CHANNELS 3  Xrotation Yrotation Zrotation
								End Site
								{
									OFFSET	1	0	0
								}
							}
						}
					}
					JOINT left_clavicle
					{
						OFFSET	-43.2	22.4	-70.8
						CHANNELS 3  Xrotation Yrotation Zrotation
						JOINT left_shoulder
						{
							OFFSET	-93.9	-5.79999	48.7
							CHANNELS 3  Xrotation Yrotation Zrotation
							JOINT left_elbow
							{
								OFFSET	-291.4	-30.8	15.2
								CHANNELS 3  Xrotation Yrotation Zrotation
								JOINT left_lowarm_twist
								{
									OFFSET	-110.7	-3.89999	13.6
									CHANNELS 3  Xrotation Yrotation Zrotation
									JOINT left_hand
									{
										OFFSET	-110.7	-3.89999	13.6
										CHANNELS 3  Xrotation Yrotation Zrotation
										JOINT left_ee
										{
											OFFSET	-80.8	-5.10001	12.1
											CHANNELS 3  Xrotation Yrotation Zrotation
											End Site
											{
												OFFSET	1	0	0
											}
										}
									}
								}
							}
						}
					}
					JOINT right_clavicle
					{
						OFFSET	43.2	22.4	-70.8
						CHANNELS 3  Xrotation Yrotation Zrotation
						JOINT right_shoulder
						{
							OFFSET	93.9	-5.79999	48.7
							CHANNELS 3  Xrotation Yrotation Zrotation
							JOINT right_elbow
							{
								OFFSET	291.4	-30.8	15.2
								CHANNELS 3  Xrotation Yrotation Zrotation
								JOINT right_lowarm_twist
								{
									OFFSET	110.7	-3.89999	13.6
									CHANNELS 3  Xrotation Yrotation Zrotation
									JOINT right_hand
									{
										OFFSET	110.7	-3.89999	13.6
										CHANNELS 3  Xrotation Yrotation Zrotation
										JOINT right_ee
										{
											OFFSET	80.8	-5.10001	12.1
											CHANNELS 3  Xrotation Yrotation Zrotation
											End Site
											{
												OFFSET	1	0	0
											}
										}
									}
								}
							}
						}
					}
				}
			}
		}
	}
	JOINT left_hip
	{
		OFFSET	-82.8	-127.5	0.300001
		CHANNELS 3  Xrotation Yrotation Zrotation
		JOINT left_knee
		{
			OFFSET	-28.2	-396.7	2.2
			CHANNELS 3  Xrotation Yrotation Zrotation
			JOINT left_ankle
			{
				OFFSET	-11.7	-411.3	35.4
				CHANNELS 3  Xrotation Yrotation Zrotation
				JOINT left_toes
				{
					OFFSET	0	-60	-88.6
					CHANNELS 3  Xrotation Yrotation Zrotation
					JOINT left_foot_ee
					{
						OFFSET	-22.5	-16.5	-42.2
						CHANNELS 3  Xrotation Yrotation Zrotation
						End Site
						{
							OFFSET	1	0	0
						}
					}
				}
			}
		}
	}
	JOINT right_hip
	{
		OFFSET	82.8	-127.5	0.300001
		CHANNELS 3  Xrotation Yrotation Zrotation
		JOINT right_knee
		{
			OFFSET	28.2	-396.7	2.2
			CHANNELS 3  Xrotation Yrotation Zrotation
			JOINT right_ankle
			{
				OFFSET	11.7	-411.3	35.4
				CHANNELS 3  Xrotation Yrotation Zrotation
				JOINT right_toes
				{
					OFFSET	0	-60	-88.6
					CHANNELS 3  Xrotation Yrotation Zrotation
					JOINT right_foot_ee
					{
						OFFSET	22.5	-16.5	-42.2
						CHANNELS 3  Xrotation Yrotation Zrotation
						End Site
						{
							OFFSET	1	0	0
						}
					}
				}
			}
		}
	}
}
MOTION
Frames: 8
Frame Time: 0.02
1176.24 607.153 -1280.15 -145.205 -58.1921 -154.326 6.06198 0.866384 2.07671 6.06408 0.732513 2.1276 6.08864 0.504846 2.19278 6.08292 0.844745 2.0856 -10.6451 5.23911 -1.1792 -10.6836 10.6705 0.218848 -0.0 0.0 -0.0 6.38272 18.6343 11.8986 -40.5689 -24.2187 57.1777 0.530874 -14.7342 0.0686389 -27.9896 -1.77356 3.07166 4.92006 -7.30357 31.6733 -0.0 0.0 -0.0 11.9913 28.2798 -23.0857 7.98649 -6.70876 -60.6652 1.2615 32.0002 -0.361744 16.0057 -0.283689 2.01827 4.83193 25.3959 -20.8618 0.0 0.0 0.0 51.2938 -6.89534 5.91541 -12.8803 0.312515 1.94781 7.27886 28.4047 -1.11339 0.232048 -0.0 -0.0 -0.0 0.0 -0.0 18.317 -20.8223 14.1369 -27.2458 -0.139664 -4.13961 28.4527 30.5197 4.64054 13.1661 -0.0 -0.0 0.0 0.0 0.0 
1209.1 607.649 -1273.73 -148.269 -57.4755 -156.909 5.96896 1.01975 1.98651 5.97072 0.891301 2.04734 6.00033 0.668007 2.13065 5.99538 0.996054 1.99849 -11.658 5.42509 0.31284 -11.7079 10.0723 1.80168 -0.0 0.0 -0.0 6.59921 17.9685 12.28 -39.726 -23.3942 58.4764 0.47925 -13.3553 0.05611 -29.3601 -1.89707 3.19663 3.37228 -6.55558 20.3996 -0.0 0.0 -0.0 11.4125 28.709 -21.7205 9.35085 -13.4209 -63.6315 1.14479 29.5563 -0.302008 9.99065 -0.243431 1.25139 4.71222 27.7249 -18.6271 0.0 0.0 0.0 48.5507 -7.8721 5.62874 -14.2172 0.319694 2.1528 14.3169 28.1126 -2.13824 0.0423487 -0.0 -0.0 -0.0 0.0 -0.0 16.7192 -15.859 13.6039 -31.7309 0.0261165 -4.80779 28.0425 22.7731 4.20344 17.3435 -0.0 -0.0 0.0 0.0 0.0 
1239.52 607.38 -1264.95 -150.301 -56.7589 -158.279 6.18964 0.878124 1.62235 6.19077 0.773125 1.67492 6.21182 0.59653 1.74562 6.20862 0.864695 1.62954 -13.6762 8.49374 0.863111 -13.8534 15.6607 3.4794 -0.0 0.0 -0.0 6.88819 16.3918 12.8458 -39.1005 -23.2337 59.8161 0.408822 -11.4488 0.0409819 -28.9125 -1.8564 3.15614 1.92913 -8.93668 9.26843 -0.0 0.0 -0.0 11.7074 29.3419 -22.3033 5.301 -12.3866 -64.2382 1.07857 28.1144 -0.270068 6.94471 -0.192411 0.865694 3.92335 27.0213 -13.8439 0.0 0.0 0.0 47.9659 -10.1101 5.38136 -18.9131 0.306988 2.87298 19.3276 27.5403 -2.82276 1.51379 -0.0 -0.0 -0.0 0.0 -0.0 16.178 -11.9421 13.596 -36.2791 0.247173 -5.47035 22.9501 21.0492 3.49399 24.0907 -0.0 -0.0 0.0 0.0 0.0 
1271.77 609.959 -1252.61 -151.783 -57.0707 -159.485 6.32823 0.672963 1.54402 6.32937 0.573362 1.5837 6.34368 0.410886 1.6334 6.34057 0.663664 1.54804 -14.3144 8.07622 3.63287 -14.4146 13.2279 6.0367 -0.0 0.0 -0.0 6.75268 15.0794 12.7029 -39.3627 -23.5448 60.6092 0.416531 -11.6588 0.0425259 -29.5963 -1.91866 3.21788 1.3423 -16.8616 1.80699 -0.0 0.0 -0.0 12.4154 28.7355 -23.9908 2.79279 -13.2299 -64.3024 0.983391 25.9722 -0.226788 3.9954 -0.123538 0.49528 4.22017 27.5732 -15.4711 0.0 0.0 0.0 46.7596 -10.1197 6.26365 -23.2602 0.242696 3.53676 26.9777 27.5949 -3.81165 -1.83853 0.0 0.0 -0.0 0.0 -0.0 14.0565 -3.1495 10.1275 -43.0755 0.673934 -6.42337 28.9152 20.203 4.20922 22.6305 -0.0 -0.0 0.0 0.0 0.0 
1304.41 616.458 -1242.25 -153.419 -57.0379 -161.087 6.40285 0.697235 1.51614 6.40393 0.599358 1.55742 6.41873 0.441516 1.60929 6.41577 0.690103 1.51939 -15.6502 10.1074 3.38304 -15.9059 17.3998 6.69621 -0.0 0.0 -0.0 7.29681 13.5474 13.7125 -37.529 -20.6179 61.6779 0.36326 -10.2013 0.0324243 -29.0623 -1.86998 3.16972 -0.129983 -11.3695 -5.71721 -0.0 0.0 -0.0 12.8039 27.8458 -24.9968 -0.330803 -8.64101 -63.9815 0.77406 20.9791 -0.143319 0.263219 -0.00919992 0.0323577 3.5465 21.512 -14.3413 0.0 0.0 0.0 44.0996 -8.77481 6.60072 -23.805 0.231093 3.61955 26.1586 27.4489 -3.70669 3.09238 -0.0 -0.0 -0.0 0.0 -0.0 17.2522 -6.51802 7.57618 -53.7796 1.56703 -7.80549 36.5378 33.2194 5.80303 26.7036 -0.0 -0.0 0.0 0.0 0.0 
1329.44 622.92 -1237.83 -152.086 -57.1356 -160.253 6.78127 0.675743 1.46918 6.78228 0.580897 1.50919 6.79605 0.438193 1.55661 6.79331 0.678506 1.4679 -16.248 8.89101 5.15354 -16.3697 14.1113 7.98649 -0.0 0.0 -0.0 7.81645 10.8747 14.7933 -38.8437 -23.776 60.1428 0.355068 -9.97593 0.0309894 -30.6907 -2.01983 3.31513 0.246006 -21.5184 -7.51193 -0.0 0.0 -0.0 12.7412 27.8733 -24.8494 -7.42353 -4.91423 -65.7731 0.869462 23.3016 -0.179282 2.28977 -0.075031 0.282815 2.85212 21.1483 -9.87028 0.0 0.0 0.0 43.3196 -9.32516 7.53462 -23.9703 0.227417 3.64465 26.977 26.1341 -3.77578 3.4426 -0.0 -0.0 -0.0 0.0 -0.0 19.498 -4.18193 6.29378 -56.9791 1.88276 -8.18428 35.1093 32.2134 5.5661 26.5705 -0.0 -0.0 0.0 0.0 0.0 
1347.51 624.114 -1233.74 -152.255 -55.8544 -161.177 7.00548 0.4933 1.40193 7.00648 0.403101 1.43047 7.01501 0.273997 1.4607 7.01239 0.501227 1.39912 -17.5885 10.8107 5.41191 -17.8738 17.8255 9.16929 -0.0 0.0 -0.0 7.9742 8.98196 15.196 -35.4962 -18.0663 61.4698 0.373914 -10.494 0.0343382 -28.2491 -1.79672 3.09555 -0.280261 -24.0058 -12.0437 -0.0 0.0 -0.0 12.6546 27.6107 -24.6846 -6.33679 -3.13651 -67.6471 0.628165 17.2849 -0.0954783 0.372486 -0.0129754 0.0458021 2.1817 15.4367 -8.08721 0.0 0.0 0.0 41.6698 -8.37868 7.41048 -22.5236 0.257132 3.42465 28.1357 24.9194 -3.88707 5.73479 -0.0 -0.0 -0.0 0.0 -0.0 23.2243 2.4333 5.20113 -62.2691 2.44992 -8.77058 32.9551 29.6777 5.1442 30.0621 -0.0 -0.0 0.0 0.0 0.0 
1373.34 629.943 -1227.79 -150.977 -55.0611 -160.036 7.15684 0.515365 1.23569 7.15758 0.435696 1.26598 7.16601 0.32455 1.29891 7.16404 0.525601 1.23137 -16.9776 10.0189 6.32065 -17.1284 15.7177 9.59253 -0.0 0.0 -0.0 7.67675 7.81717 14.71 -35.3076 -21.9958 59.6237 0.561886 -15.5543 0.076741 -29.4948 -1.90937 3.20876 -0.879661 -24.2677 -16.158 -0.0 0.0 -0.0 12.0045 26.9084 -23.2857 -13.6122 3.69462 -70.0806 0.79914 21.597 -0.152425 -7.26849 0.312079 -0.874597 0.540364 12.2732 1.57536 0.0 0.0 0.0 40.8044 -8.63026 7.86169 -22.9321 0.249306 3.48684 30.7818 24.6762 -4.18908 5.14521 -0.0 -0.0 -0.0 0.0 -0.0 29.6063 8.65514 5.753 -68.7974 3.22097 -9.41883 35.2678 29.8972 5.42062 32.0097 -0.0 -0.0 0.0 0.0 0.0 
